HIERARCHY
ROOT Hips
{
  OFFSET 0 0 0
  CHANNELS 6 Xposition Yposition Zposition Zrotation Xrotation Yrotation
  JOINT Spine
  {
    OFFSET 0.00000000 0.00000000 0.00000000
    CHANNELS 3 Zrotation Xrotation Yrotation
    JOINT Spine1
    {
      OFFSET 0.19000000 0.00000000 0.00000000
      CHANNELS 3 Zrotation Xrotation Yrotation
      JOINT Neck
      {
        OFFSET 0.22500000 0.00600000 0.00000000
        CHANNELS 3 Zrotation Xrotation Yrotation
        JOINT Head
        {
          OFFSET 0.14000000 0.00030878 0.00000000
          CHANNELS 3 Zrotation Xrotation Yrotation
          End Site
          {
            OFFSET 0.17000000 0.00000000 0.00000000
          }
        }
      }
      JOINT LeftShoulder
      {
        OFFSET 0.19800000 0.03700000 0.04300000
        CHANNELS 3 Zrotation Xrotation Yrotation
        JOINT LeftArm
        {
          OFFSET 0.08000000 0.00000000 0.00000000
          CHANNELS 3 Zrotation Xrotation Yrotation
          JOINT LeftForeArm
          {
            OFFSET 0.15200000 0.00000000 0.00000000
            CHANNELS 3 Zrotation Xrotation Yrotation
            JOINT LeftHand
            {
              OFFSET 0.17800000 0.00000000 0.00000000
              CHANNELS 3 Zrotation Xrotation Yrotation
              End Site
              {
                OFFSET 0.07200000 0.00000000 0.00000000
              }
            }
          }
        }
      }
      JOINT RightShoulder
      {
        OFFSET 0.19800000 0.03700000 -0.04300000
        CHANNELS 3 Zrotation Xrotation Yrotation
        JOINT RightArm
        {
          OFFSET 0.08000000 0.00000000 0.00151654
          CHANNELS 3 Zrotation Xrotation Yrotation
          JOINT RightForeArm
          {
            OFFSET 0.15200000 0.00000000 0.00000000
            CHANNELS 3 Zrotation Xrotation Yrotation
            JOINT RightHand
            {
              OFFSET 0.17800000 0.00000000 0.00000000
              CHANNELS 3 Zrotation Xrotation Yrotation
              End Site
              {
                OFFSET 0.07200000 0.00000000 0.00000000
              }
            }
          }
        }
      }
    }
  }
  JOINT LeftUpLeg
  {
    OFFSET 0.05984250 -0.07666000 0.04788790
    CHANNELS 3 Zrotation Xrotation Yrotation
    JOINT LeftLeg
    {
      OFFSET 0.16000000 0.00000000 0.00000000
      CHANNELS 3 Zrotation Xrotation Yrotation
      JOINT LeftFoot
      {
        OFFSET 0.18000000 0.00000000 0.00000000
        CHANNELS 3 Zrotation Xrotation Yrotation
        End Site
        {
          OFFSET 0.00000000 -0.10800000 0.00000000
        }
      }
    }
  }
  JOINT RightUpLeg
  {
    OFFSET 0.05984250 -0.07665980 -0.04788790
    CHANNELS 3 Zrotation Xrotation Yrotation
    JOINT RightLeg
    {
      OFFSET 0.16000000 0.00000000 0.00000000
      CHANNELS 3 Zrotation Xrotation Yrotation
      JOINT RightFoot
      {
        OFFSET 0.18000000 0.00000000 0.00000000
        CHANNELS 3 Zrotation Xrotation Yrotation
        End Site
        {
          OFFSET 0.00000000 -0.10800000 0.00000000
        }
      }
    }
  }
  JOINT Tail
  {
    OFFSET 0.06836960 -0.00722574 0.00000000
    CHANNELS 3 Zrotation Xrotation Yrotation
    JOINT Tail1
    {
      OFFSET 0.12000000 0.00000000 0.00000000
      CHANNELS 3 Zrotation Xrotation Yrotation
      End Site
      {
        OFFSET 0.12000000 0.00000000 0.00000000
      }
    }
  }
}
MOTION
Frames:	6
Frame Time:	0.0166667
-4.6121340 0.5209860 -0.7373677 3.03458 -2.50775 -2.89665 -173.708 1.38924 2.25116 7.33264 1.52398 -3.4262 -16.3848 -7.06427 -0.299305 -106.724 70.9361 109.189 -106.15 -26.8374 -148.391 146.921 -29.9562 -121.698 -29.5769 -27.7931 -5.82312 25.3268 3.80111 -7.30768 76.7585 -27.3015 43.2115 44.9546 -37.4242 -38.1353 -64.5003 -20.5605 -0.247968 -23.8942 -5.24406 20.0388 -124.251 -0.0249448 -13.544 116.729 10.2184 -2.12549 41.6641 -1.95846 -3.9074 -134.427 -0.761593 3.74307 106.187 -1.96711 -3.78284 25.1052 -1.81032 -3.07645 -13.7228 24.1267 -31.1712 1.11256 -10.5798 -7.68758 
-4.6657636 0.5234710 -0.7452352 -2.13160 -2.49929 -3.54815 -169.029 1.08403 -0.0165902 6.37487 1.23354 -0.780166 -18.1962 -6.27241 -2.50627 -106.217 70.3619 109.634 -107.546 -29.8382 -144.818 145.077 -33.7061 -117.936 -45.1401 -43.9901 -3.16702 44.7567 3.4924 -13.4741 77.7474 -25.2437 41.3967 45.1897 -41.4866 -37.5242 -57.4397 -20.1118 1.80379 -20.7563 -2.71351 14.0846 -127.054 1.94353 -13.9953 124.602 12.3734 -2.65461 33.7999 -1.86395 -3.52381 -134.69 -1.82253 3.5546 99.6684 -3.21217 -3.92898 28.0304 -1.54291 -2.85547 -8.06695 24.6352 -34.3427 3.6491 -10.2662 -7.04813 
-4.7186484 0.5240790 -0.7522757 -7.49004 -2.04330 -4.32201 -164.655 0.54736 -2.07248 5.57976 0.938107 0.842573 -18.8101 -6.03182 -3.17635 -105.099 70.7035 110.143 -109.379 -33.4641 -141.771 138.14 -36.7647 -118.16 -55.428 -64.8766 8.11492 43.2475 -0.664393 -34.5976 78.7244 -23.7043 40.909 43.344 -43.3249 -40.4291 -48.8145 -17.7025 3.6952 -16.3796 -0.345539 6.80827 -129.532 4.10181 -13.994 129.664 15.8966 -2.86178 28.094 -1.86328 -3.31927 -133.978 -2.84197 2.56968 92.1721 -3.8442 -3.71799 32.8432 -1.16543 -2.59797 -2.18153 24.3675 -36.7815 5.83919 -9.87814 -6.37553 
-4.7711026 0.5226610 -0.7588767 -12.3835 -1.21286 -5.31981 -160.674 -0.200951 -4.53395 4.24169 0.6525 2.4192 -18.546 -6.55551 -3.38032 -103.179 69.9492 111.085 -110.914 -36.729 -139.216 132.013 -38.5801 -119.764 -56.7002 -68.8327 24.6347 44.5964 -0.954263 -33.7813 78.9257 -23.4882 41.14 40.6279 -45.0357 -44.4982 -41.1862 -16.1788 4.49726 -11.2939 1.64105 -1.21413 -132.811 5.42836 -14.004 132.283 18.5442 -2.91453 25.3265 -1.80854 -3.09122 -132.707 -3.94761 0.303301 84.0905 -3.99366 -2.64735 38.6774 -0.683157 -2.34093 3.0938 23.5061 -38.1176 7.45288 -9.41191 -6.0027 
-4.8227648 0.5194470 -0.7651222 -16.7143 -0.20687 -6.43411 -156.263 -1.18963 -7.01919 1.06149 0.279727 3.75287 -17.4424 -7.12823 -3.50901 -100.675 69.0048 112.657 -112.049 -39.0141 -137.805 127.458 -38.4524 -122.135 -59.1372 -68.2431 35.342 40.791 0.463083 -29.8715 78.8391 -23.4571 40.6244 39.91 -51.345 -44.2689 -45.2523 -11.7003 3.14222 0.547667 2.28002 -11.1949 -136.022 6.02936 -13.4878 132.185 21.0318 -2.85236 23.6857 -1.90849 -3.23456 -130.942 -4.99522 -2.44515 76.6244 -5.69314 -0.86309 45.205 0.0482584 -1.90626 7.77432 22.0243 -38.1931 8.17859 -8.80943 -6.00398 
-4.8732057 0.5137030 -0.7703500 -20.2084 0.93482 -7.75017 -152.161 -2.23729 -9.3028 -3.15159 -0.038555 4.54896 -15.837 -7.75215 -3.69663 -98.8605 67.6562 114.016 -112.753 -40.436 -136.988 125.225 -36.7068 -123.505 -72.8337 -61.967 31.2118 35.0568 2.34396 -20.2074 78.3602 -24.037 40.3189 31.3312 -58.7971 -45.0353 -51.931 -13.9822 -3.37455 5.04449 4.0736 -25.0706 -139.201 4.95853 -12.5668 129.474 22.046 -2.66013 22.7523 -2.19382 -3.81384 -128.981 -4.96642 -4.90614 72.6909 -5.39188 0.601551 48.4446 0.270964 -1.88796 11.3879 20.6303 -37.3195 8.29832 -8.33051 -6.05999 
